<svg width="1728px" height="288px" viewBox="0 0 1728 288" version="1.1" xmlns="http://www.w3.org/2000/svg" xmlns:xlink="http://www.w3.org/1999/xlink">
    <!-- Generator: Sketch 43.2 (39069) - http://www.bohemiancoding.com/sketch -->
    <desc>Created with Sketch.</desc>
    <defs></defs>
    <g id="Page-1" stroke="none" stroke-width="1" fill="none" fill-rule="evenodd">
        <g id="Group-4" fill-rule="nonzero" fill="#FFFFFF">
            <g id="Group-2-Copy">
                <path d="M179.786982,0.705882353 C110.257988,3.26470588 11.0769231,54.1 1.02248521,129.5 C-8.17988166,199.441176 74.4710059,282.347059 139.739645,287.294118 C301.973964,299.747059 366.220118,-6.11764706 179.786982,0.705882353 Z M264.142012,112.1 C261.756213,171.635294 235.001183,257.782353 164.449704,267.676471 C102.078107,276.376471 33.5715976,202.682353 26.4142012,144 C11.2473373,19.1294118 272.321893,-42.7941176 264.142012,112.1 Z" id="Shape"></path>
                <ellipse id="Oval" transform="translate(147.897850, 143.177577) rotate(-35.603614) translate(-147.897850, -143.177577) " cx="147.89785" cy="143.177577" rx="30.6759128" ry="30.7072403"></ellipse>
            </g>
            <g id="Group-3" transform="translate(396.360947, 25.588235)">
                <path d="M65.0419139,121.125984 C42.3458195,116.297236 31.7419066,110.725604 31.7419066,100.325225 C31.7419066,91.4106135 40.2994504,82.8674446 57.9726386,82.8674446 C78.8083973,82.8674446 92.5748808,98.0965718 92.5748808,98.0965718 L108.945834,81.1959551 C108.945834,81.1959551 90.5285116,60.3951961 57.9726386,60.3951961 C27.2771012,60.3951961 7.37151021,80.0816287 7.37151021,99.9537824 C7.37151021,125.76901 28.207269,137.469437 57.6005715,143.412511 C78.8083973,147.684095 88.8542096,153.441448 88.8542096,165.327596 C88.8542096,176.285139 73.041357,182.228213 59.08884,182.228213 C31.9279402,182.228213 17.4173225,159.941686 17.4173225,159.941686 L0.116201362,175.913697 C0.116201362,175.913697 20.3938594,204.700462 59.08884,204.700462 C85.5056055,204.700462 113.596673,190.957103 113.596673,164.584712 C113.596673,136.540832 91.2726459,126.697615 65.0419139,121.125984 Z" id="Shape"></path>
                <path d="M238.923613,158.827359 C238.923613,158.827359 227.947633,181.485329 204.693438,181.485329 C186.276115,181.485329 171.579464,171.456391 171.579464,147.869817 L171.579464,63.7381752 L146.650967,63.7381752 L146.650967,151.95568 C146.650967,185.756913 171.021363,204.514741 198.368297,204.514741 C228.133666,204.514741 240.597915,179.813839 240.597915,179.813839 L240.597915,200.98604 L263.85211,200.98604 L263.85211,63.7381752 L238.923613,63.7381752 L238.923613,158.827359 L238.923613,158.827359 Z" id="Shape"></path>
                <path d="M378.76117,60.209475 C348.4377,60.209475 334.485183,80.6387919 334.485183,80.6387919 L334.485183,7.1551581 L309.556686,0.331628688 L309.556686,201.171762 L332.438814,201.171762 L332.438814,181.299608 C332.438814,181.299608 345.83323,204.700462 378.947204,204.700462 C416.153916,204.700462 445.547218,172.94216 445.547218,132.454968 C445.547218,91.9677767 415.967882,60.209475 378.76117,60.209475 Z M374.854465,181.485329 C347.507532,181.485329 334.299149,157.713033 334.299149,157.713033 L334.299149,107.196904 C334.299149,107.196904 347.321498,83.4246078 374.854465,83.4246078 C402.201399,83.4246078 420.432688,105.339693 420.432688,132.454968 C420.432688,159.570243 402.759499,181.485329 374.854465,181.485329 Z" id="Shape"></path>
                <path d="M533.109345,121.125984 C510.413251,116.297236 499.809338,110.725604 499.809338,100.325225 C499.809338,91.4106135 508.366882,82.8674446 526.04007,82.8674446 C546.875829,82.8674446 560.642312,98.0965718 560.642312,98.0965718 L577.013265,81.1959551 C577.013265,81.1959551 558.595943,60.3951961 526.04007,60.3951961 C495.344532,60.3951961 475.438942,80.0816287 475.438942,99.9537824 C475.438942,125.76901 496.2747,137.469437 525.668003,143.412511 C546.875829,147.684095 556.921641,153.441448 556.921641,165.327596 C556.921641,176.285139 541.108788,182.228213 527.156271,182.228213 C499.995372,182.228213 485.484754,159.941686 485.484754,159.941686 L468.183633,175.913697 C468.183633,175.913697 488.461291,204.700462 527.156271,204.700462 C553.573037,204.700462 581.664104,190.957103 581.664104,164.584712 C581.478071,136.540832 559.154044,126.697615 533.109345,121.125984 Z" id="Shape"></path>
                <path d="M676.295507,181.485329 C662.90109,181.485329 656.389916,173.685044 656.389916,160.313128 L656.389916,86.3961448 L699.177635,86.3961448 L699.177635,63.7381752 L656.389916,63.7381752 L656.389916,16.647568 L631.461419,23.4710974 L631.461419,63.7381752 L604.672586,63.7381752 L604.672586,86.3961448 L631.461419,86.3961448 L631.461419,161.613175 C631.461419,191.885708 653.227345,204.700462 672.760869,204.700462 C680.760312,204.700462 689.503889,202.843251 701.410037,196.343014 L692.108359,175.913697 C692.108359,175.727976 683.922883,181.485329 676.295507,181.485329 Z" id="Shape"></path>
                <path d="M832.690051,83.6103289 C832.690051,83.6103289 819.295635,60.209475 785.62356,60.209475 C748.974949,60.209475 719.581646,91.9677767 719.581646,132.454968 C719.581646,172.94216 748.974949,204.700462 785.62356,204.700462 C819.295635,204.700462 832.690051,181.299608 832.690051,181.299608 L832.690051,201.171762 L855.572179,201.171762 L855.572179,63.7381752 L832.690051,63.7381752 L832.690051,83.6103289 Z M830.457648,158.270196 C830.457648,158.270196 817.063232,181.485329 790.274399,181.485329 C762.369365,181.485329 744.510143,159.570243 744.510143,132.454968 C744.510143,105.339693 762.369365,83.4246078 790.274399,83.4246078 C817.063232,83.4246078 830.457648,106.639741 830.457648,106.639741 L830.457648,158.270196 Z" id="Shape"></path>
                <path d="M964.714199,60.209475 C934.948829,60.209475 922.484581,83.0531657 922.484581,83.0531657 L922.484581,63.7381752 L899.230386,63.7381752 L899.230386,200.98604 L924.158883,200.98604 L924.158883,106.45402 C924.158883,106.45402 936.06503,83.2388868 958.389058,83.2388868 C976.80638,83.2388868 991.503031,93.2678241 991.503031,116.854399 L991.503031,200.98604 L1016.43153,200.98604 L1016.43153,112.768536 C1016.43153,78.9673023 992.061132,60.209475 964.714199,60.209475 Z" id="Shape"></path>
                <path d="M1121.29478,181.485329 C1093.57578,181.485329 1075.53052,159.570243 1075.53052,132.454968 C1075.53052,105.339693 1093.76181,83.4246078 1121.29478,83.4246078 C1145.66517,83.4246078 1159.05959,100.139503 1159.05959,100.139503 L1175.98864,84.9103763 C1175.98864,84.9103763 1156.26909,60.209475 1121.29478,60.209475 C1080.73946,60.209475 1050.41599,92.3392188 1050.41599,132.454968 C1050.41599,172.94216 1080.73946,204.700462 1121.29478,204.700462 C1157.57132,204.700462 1177.47691,178.328071 1177.47691,178.328071 L1161.47803,161.984617 C1161.47803,161.798896 1148.08361,181.485329 1121.29478,181.485329 Z" id="Shape"></path>
                <path d="M1330.70889,133.197853 C1330.70889,88.9962397 1302.05972,60.0237539 1263.7368,60.0237539 C1222.43735,60.0237539 1194.90439,92.1534978 1194.90439,132.269247 C1194.90439,172.94216 1225.04182,204.514741 1266.71334,204.514741 C1302.98988,204.514741 1323.82564,177.399466 1323.82564,177.399466 L1308.01279,161.056012 C1308.01279,161.056012 1293.68821,181.299608 1266.71334,181.299608 C1240.85468,181.299608 1220.94908,161.984617 1219.46082,141.183858 L1330.52285,141.183858 C1330.70889,138.0266 1330.70889,135.983669 1330.70889,133.197853 Z M1220.01892,120.56882 C1221.87925,106.268299 1233.97143,83.4246078 1263.7368,83.4246078 C1291.4558,83.4246078 1305.40832,105.153972 1306.33849,120.56882 L1220.01892,120.56882 Z" id="Shape"></path>
            </g>
        </g>
    </g>
</svg>
